<?xml version="1.0" encoding="UTF-8"?>
<svg version="1.1" width="45.333332" height="45.333332" viewBox="0 0 45.333332 45.333332" xmlns="http://www.w3.org/2000/svg">
  <g>
    <path style="fill:#e2e8f0;stroke:none;" d="M 2.608 9.483 C 2.37 5.182 5.586 1.46 9.46 1.534 L 36.464 1.285 C 39.659 1.328 42.649 3.584 42.913 7.247 L 43.155 38.463 C 43.145 41.379 42.2 43.565 39.264 43.797 L 8.09 43.68 C 4.453 43.652 2.225 43.12 2.689 37.304 Z" />
    <rect x="11" y="9" width="23" height="27" rx="3" fill="none" stroke="#089b93" stroke-width="2" />
    <rect x="14.5" y="12" width="16" height="5" rx="1" fill="#089b93" />
    <circle cx="16" cy="22" r="1.5" fill="#089b93" />
    <circle cx="22.6" cy="22" r="1.5" fill="#089b93" />
    <circle cx="29.2" cy="22" r="1.5" fill="#089b93" />
    <circle cx="16" cy="27" r="1.5" fill="#089b93" />
    <circle cx="22.6" cy="27" r="1.5" fill="#089b93" />
    <circle cx="29.2" cy="27" r="1.5" fill="#089b93" />
    <circle cx="16" cy="32" r="1.5" fill="#089b93" />
    <rect x="21" y="30.5" width="9.5" height="3" rx="1" fill="#089b93" />
  </g>
</svg>
